<?xml version="1.0" encoding="utf-8"?>
<!-- Generator: Adobe Illustrator 27.0.0, SVG Export Plug-In . SVG Version: 6.00 Build 0)  -->
<svg version="1.1" id="Layer_1" xmlns="http://www.w3.org/2000/svg" xmlns:xlink="http://www.w3.org/1999/xlink" x="0px" y="0px"
	 viewBox="0 0 117.176 120" style="enable-background:new 0 0 117.176 120;" xml:space="preserve">
<style type="text/css">
	.st0{fill:#EB4A4C;}
</style>
<g>
	<path class="st0" d="M105.967,0H11.209C4.179,0-1.2,5.379-1.2,12.409v95.167C-1.2,114.621,4.179,120,11.209,120h94.758
		c7.031,0,12.409-5.379,12.409-12.409V12.409C118.39,5.788,113.012,0,105.967,0L105.967,0z M11.209,4.136h94.758
		c4.546,0,8.273,3.727,8.273,8.273v12.409H2.936V12.409C2.936,7.864,6.663,4.136,11.209,4.136L11.209,4.136z M105.967,115.864
		H11.209c-4.546,0-8.273-3.727-8.273-8.273V28.969h111.727v78.621C114.663,112.136,110.936,115.864,105.967,115.864
		C106.39,115.864,105.967,115.864,105.967,115.864z"/>
	<circle class="st0" cx="100.179" cy="14.485" r="4.136"/>
	<circle class="st0" cx="83.633" cy="14.485" r="4.136"/>
	<circle class="st0" cx="67.073" cy="14.485" r="4.136"/>
	<path class="st0" d="M42.254,54.212c-0.833-0.833-2.075-0.833-2.894,0l0,0L24.875,68.696c-0.833,0.833-0.833,2.075,0,2.894
		L39.36,86.075c0,0.409,0.833,0.833,1.242,0.833c1.242,0,2.075-0.833,2.075-2.075c0-0.409-0.409-1.242-0.409-1.242L29.012,70.348
		l13.242-12.833C43.073,56.696,43.073,55.031,42.254,54.212z"/>
	<path class="st0" d="M78.254,54.212c-0.833-0.833-2.075-0.833-2.894,0l0,0c-0.833,0.833-0.833,2.075,0,2.894l12.833,13.242
		L74.95,83.181c-0.833,0.833-0.833,2.075,0,2.894c0.409,0.409,0.833,0.409,1.652,0.409c0.409,0,1.242-0.409,1.652-0.409
		l14.485-14.485c0.833-0.833,0.833-2.075,0-2.894L78.254,54.212z"/>
	<path class="st0" d="M67.073,54.212c-0.833-0.409-2.075,0-2.894,0.833L49.694,84c-0.409,0.833,0,2.075,0.833,2.894
		c0.409,0,0.409,0,0.833,0c0.833,0,1.652-0.409,1.652-1.242l14.485-28.969C68.315,55.864,67.906,54.621,67.073,54.212z"/>
</g>
</svg>
