<?xml version="1.0" encoding="utf-8"?>
<!-- Generator: Adobe Illustrator 27.0.0, SVG Export Plug-In . SVG Version: 6.00 Build 0)  -->
<svg version="1.1" id="Layer_1" xmlns="http://www.w3.org/2000/svg" xmlns:xlink="http://www.w3.org/1999/xlink" x="0px" y="0px"
	 viewBox="0 0 110.941 120" style="enable-background:new 0 0 110.941 120;" xml:space="preserve">
<style type="text/css">
	.st0{fill-rule:evenodd;clip-rule:evenodd;fill:#EB4A4C;}
</style>
<g>
	<path class="st0" d="M104.133,12.267c-1.736,0-3.063-1.327-3.063-3.063s1.327-3.063,3.063-3.063s3.063,1.327,3.063,3.063l0,0
		C107.21,10.926,105.869,12.267,104.133,12.267z M60.938,14.667H50.012V3.727h10.926V14.667z M94.534,53.33h-6.268v-6.267h6.268
		V53.33z M22.811,53.33h-6.267v-6.267h6.267V53.33z M6.817,12.267c-1.736,0-3.063-1.327-3.063-3.063s1.327-3.077,3.063-3.077
		s3.063,1.341,3.063,3.077l0,0C10.022,10.926,8.554,12.267,6.817,12.267z M104.133,2.4c-3.063,0-5.731,2.004-6.536,4.926H64.679
		V1.863C64.679,0.805,63.874,0,62.816,0l0,0H48.149c-1.073,0-1.863,0.805-1.863,1.863l0,0v5.463H13.48
		c-1.073-3.6-4.799-5.731-8.526-4.672s-5.731,4.814-4.672,8.54s4.799,5.731,8.526,4.672c2.273-0.663,4.136-2.4,4.672-4.672h25.592
		c-12.535,5.999-20.666,18.393-21.329,32.128H14.68c-1.073,0-1.863,0.805-1.863,1.863l0,0v10.008c0,1.073,0.805,1.863,1.863,1.863
		l0,0h9.994c1.073,0,1.863-0.805,1.863-1.863l0,0v-9.994c0-1.073-0.805-1.863-1.863-1.863l0,0H21.47
		c0.805-14.525,10.799-26.933,24.802-30.928v4.136c0,1.073,0.805,1.863,1.863,1.863l0,0h14.681c1.073,0,1.863-0.805,1.863-1.863l0,0
		v-4.277c14.003,3.995,23.997,16.403,24.802,30.928h-3.063c-1.073,0-1.863,0.805-1.863,1.863l0,0v9.994
		c0,1.073,0.805,1.863,1.863,1.863l0,0h9.994c1.073,0,1.863-0.805,1.863-1.863v-9.994c0-1.073-0.805-1.863-1.863-1.863l0,0h-3.204
		c-0.663-13.862-8.935-26.129-21.329-32.128H97.47c1.073,3.6,4.799,5.731,8.526,4.672c3.6-1.073,5.731-4.799,4.672-8.526
		C109.878,4.404,107.21,2.4,104.133,2.4z M69.605,89.989H41.486l-12.93-24.392l25.07-35.869v24.929
		c-4.136,1.073-6.663,5.195-5.604,9.331c1.073,4.136,5.195,6.663,9.331,5.604c4.136-1.073,6.663-5.195,5.604-9.331
		c-0.663-2.795-2.795-4.926-5.604-5.604V29.728l25.07,35.869L69.605,89.989L69.605,89.989z M73.205,99.856H37.746v-1.595
		l3.473-4.404h28.528l3.473,4.404L73.205,99.856L73.205,99.856z M76.946,116.259H34.019v-12.662h42.927V116.259z M55.475,58.257
		c-2.132,0-3.995,1.736-3.995,3.995c0,2.132,1.736,3.995,3.995,3.995c2.132,0,3.995-1.736,3.995-3.995l0,0
		C59.484,59.993,57.748,58.257,55.475,58.257z M86.135,64.397c0.395,0.536,0.395,1.327,0.127,2.004L72.937,91.726l3.6,4.672
		c0.268,0.268,0.395,0.663,0.395,1.2v2.273h1.863c1.073,0,1.863,0.805,1.863,1.863l0,0v16.403c0,1.073-0.805,1.863-1.863,1.863l0,0
		H32.142c-1.073,0-1.863-0.805-1.863-1.863l0,0V101.72c0-1.073,0.805-1.863,1.863-1.863l0,0h1.877v-2.273
		c0-0.395,0.127-0.805,0.395-1.2l3.6-4.672L24.688,66.387c-0.268-0.663-0.268-1.327,0.127-2.004l29.065-41.6
		c0.536-0.805,1.736-1.073,2.527-0.536c0.127,0.127,0.395,0.268,0.536,0.536L86.135,64.397z"/>
</g>
</svg>
