<?xml version="1.0" encoding="utf-8"?>
<!-- Generator: Adobe Illustrator 27.0.0, SVG Export Plug-In . SVG Version: 6.00 Build 0)  -->
<svg version="1.1" id="Layer_1" xmlns="http://www.w3.org/2000/svg" xmlns:xlink="http://www.w3.org/1999/xlink" x="0px" y="0px"
	 viewBox="0 0 117.176 120" style="enable-background:new 0 0 117.176 120;" xml:space="preserve">
<style type="text/css">
	.st0{fill:#EB4A4C;}
</style>
<g>
	<path class="st0" d="M108.93,9.178H82.937V3.445C82.937,1.539,81.412,0,79.492,0H16.816c-1.906,0-3.445,1.525-3.445,3.445v5.732
		H8.217C3.629,9.178,0,12.806,0,21.024v71.472v-3.826c0,3.445,2.104,6.311,4.97,7.455c0.96,0.381,2.104,0.579,3.247,0.579h36.315
		l-7.455,10.886h-4.772c-4.01,0-7.257,3.247-7.257,7.257v2.104h-7.639c-0.96,0-1.723,0.762-1.723,1.525
		c0,0.96,0.762,1.525,1.723,1.525h82.174c0.96,0,1.525-0.762,1.525-1.525s-0.762-1.525-1.525-1.525h-7.455v-2.104
		c0-4.01-3.247-7.257-7.257-7.257h-4.772l-7.455-10.702h36.315c1.144,0,2.287-0.198,3.247-0.579c2.866-1.341,4.97-4.208,4.97-7.455
		v3.826V21.024C117.148,12.806,113.322,9.178,108.93,9.178z M88.867,115.044v2.104h-60.77v-2.104c0-2.104,1.723-4.01,4.01-4.01
		h52.933C87.144,111.034,88.867,112.94,88.867,115.044z M108.93,12.425c2.669,0,4.97,2.104,4.97,4.97v60.586h-3.826v-52.75
		c0-2.669-0.762-3.445-1.525-3.445H89.813c-0.96,0-1.525,0.762-1.525,1.723v54.458h-5.351V12.425H108.93z M106.827,32.107h-4.589
		c-0.96,0-1.525,0.762-1.525,1.723s0.762,1.723,1.525,1.723h4.589v4.208h-2.669c-0.96,0-1.525,0.762-1.525,1.723
		c0,0.96,0.762,1.723,1.525,1.723h2.669v4.208h-4.589c-0.96,0-1.525,0.762-1.525,1.723c0,0.96,0.762,1.723,1.525,1.723h4.589v4.208
		h-2.669c-0.96,0-1.525,0.762-1.525,1.723s0.762,1.723,1.525,1.723h2.669v4.208h-4.589c-0.96,0-1.525,0.762-1.525,1.525
		s0.762,1.525,1.525,1.525h4.589v4.208h-2.669c-0.96,0-1.525,0.762-1.525,1.525s0.579,1.144,1.525,1.144h2.669v5.154H91.535V25.034
		h15.291V32.107z M16.816,16.054h62.676v61.73H16.816V16.054z M79.506,3.247C79.506,3.247,79.689,3.247,79.506,3.247v9.559h-62.69
		V3.247C17.014,3.247,79.506,3.247,79.506,3.247z M8.217,12.425h5.351v65.358H3.247V17.197C3.247,14.529,5.549,12.425,8.217,12.425z
		 M76.244,107.787H40.89l7.455-10.886h20.445L76.244,107.787z M108.93,93.639H8.217c-0.579,0-1.341-0.198-1.906-0.381
		c-1.723-0.762-3.064-2.485-3.064-4.589v-7.639h110.455v7.639c0,2.104-1.341,3.826-3.064,4.589
		C110.272,93.456,109.509,93.639,108.93,93.639z"/>
	<path class="st0" d="M61.532,85.803h-6.114c-0.96,0-1.723,0.762-1.723,1.525s0.762,1.525,1.723,1.525h6.114
		c0.96,0,1.525-0.762,1.525-1.525S62.492,85.803,61.532,85.803z"/>
	<path class="st0" d="M21.588,9.742h0.96c0.96,0,1.723-0.762,1.723-1.525c0-0.96-0.762-1.723-1.723-1.723h-0.96
		c-0.96,0-1.723,0.762-1.723,1.723C19.88,8.98,20.642,9.742,21.588,9.742z"/>
	<path class="st0" d="M27.519,9.742h0.96c0.96,0,1.723-0.762,1.723-1.525c0-0.96-0.762-1.723-1.723-1.723h-0.96
		c-0.96,0-1.723,0.762-1.723,1.723C25.796,8.98,26.558,9.742,27.519,9.742z"/>
	<path class="st0" d="M33.251,9.742h1.144c0.96,0,1.525-0.762,1.525-1.525c0-0.96-0.762-1.723-1.525-1.723h-0.96
		c-0.96,0-1.723,0.762-1.723,1.723C31.726,8.98,32.489,9.742,33.251,9.742z"/>
	<path class="st0" d="M26.177,44.151h16.237c1.723,0,3.064-1.341,3.064-3.064V24.85c0-1.723-1.341-3.064-3.064-3.064H26.177
		c-1.723,0-3.064,1.341-3.064,3.064v16.237C22.93,42.81,24.455,44.151,26.177,44.151z M42.231,25.034l0.198,16.054l-16.054,0.198
		l-0.198-16.054L42.231,25.034L42.231,25.034z"/>
	<path class="st0" d="M54.077,44.151h16.237c1.723,0,3.247-1.341,3.247-3.064V24.85c0-1.723-1.341-3.064-3.247-3.064H54.077
		c-1.723,0-3.247,1.341-3.247,3.064v16.237C50.83,42.81,52.369,44.151,54.077,44.151z M70.131,25.034l0.198,16.054l-16.054,0.198
		l-0.198-16.054L70.131,25.034L70.131,25.034z"/>
	<path class="st0" d="M71.853,49.686H24.652c-0.96,0-1.723,0.762-1.723,1.723v18.539c0,0.96,0.762,1.525,1.723,1.525h47.201
		c0.96,0,1.525-0.762,1.525-1.525V51.408C73.378,50.448,72.616,49.686,71.853,49.686z M70.131,68.027H26.177V52.933h43.953V68.027
		L70.131,68.027z"/>
</g>
</svg>
